<svg width="194" height="194" viewBox="0 0 194 194" fill="none" xmlns="http://www.w3.org/2000/svg">
<path d="M15.8917 138.934C16.3996 138.426 16.3996 137.602 15.8917 137.094C15.3838 136.586 14.5602 136.586 14.0523 137.094C13.5443 137.602 13.5443 138.426 14.0523 138.934C14.5602 139.442 15.3838 139.442 15.8917 138.934Z" fill="#006BFF"/>
<path d="M29.7308 152.773C30.3314 152.172 30.3314 151.198 29.7308 150.598C29.1302 149.997 28.1564 149.997 27.5558 150.598C26.9552 151.198 26.9552 152.172 27.5558 152.773C28.1564 153.373 29.1302 153.373 29.7308 152.773Z" fill="#006BFF"/>
<path d="M43.4022 166.444C44.0028 165.844 44.0028 164.87 43.4022 164.269C42.8016 163.669 41.8278 163.669 41.2272 164.269C40.6266 164.87 40.6266 165.844 41.2272 166.444C41.8278 167.045 42.8016 167.045 43.4022 166.444Z" fill="#006BFF"/>
<path d="M56.9057 179.948C57.4136 179.44 57.4136 178.616 56.9057 178.108C56.3978 177.6 55.5742 177.6 55.0663 178.108C54.5584 178.616 54.5583 179.44 55.0663 179.948C55.5742 180.456 56.3978 180.456 56.9057 179.948Z" fill="#006BFF"/>
<path d="M2.22037 97.9197C2.72831 97.4118 2.72831 96.5882 2.22037 96.0803C1.71243 95.5723 0.888896 95.5723 0.380955 96.0803C-0.126985 96.5882 -0.126985 97.4118 0.380955 97.9197C0.888896 98.4276 1.71243 98.4276 2.22037 97.9197Z" fill="#006BFF"/>
<path d="M16.2273 111.927C16.9205 111.233 16.9205 110.109 16.2273 109.416C15.534 108.723 14.41 108.723 13.7167 109.416C13.0234 110.109 13.0234 111.233 13.7167 111.927C14.41 112.62 15.534 112.62 16.2273 111.927Z" fill="#006BFF"/>
<path d="M30.2342 125.934C31.1128 125.055 31.1128 123.63 30.2342 122.752C29.3556 121.873 27.9311 121.873 27.0525 122.752C26.1739 123.63 26.1739 125.055 27.0525 125.934C27.9311 126.812 29.3556 126.812 30.2342 125.934Z" fill="#006BFF"/>
<path d="M44.2411 139.94C45.305 138.876 45.305 137.152 44.2411 136.088C43.1771 135.024 41.4522 135.024 40.3882 136.088C39.3243 137.152 39.3243 138.876 40.3882 139.94C41.4522 141.004 43.1771 141.004 44.2411 139.94Z" fill="#006BFF"/>
<path d="M57.9124 153.612C58.9763 152.548 58.9763 150.823 57.9124 149.759C56.8485 148.695 55.1235 148.695 54.0596 149.759C52.9957 150.823 52.9957 152.548 54.0596 153.612C55.1235 154.676 56.8485 154.676 57.9124 153.612Z" fill="#006BFF"/>
<path d="M71.2482 166.948C72.1268 166.069 72.1268 164.644 71.2482 163.766C70.3696 162.887 68.9451 162.887 68.0665 163.766C67.1879 164.644 67.1879 166.069 68.0665 166.948C68.9451 167.826 70.3696 167.826 71.2482 166.948Z" fill="#006BFF"/>
<path d="M84.5839 180.283C85.2772 179.59 85.2772 178.466 84.5839 177.773C83.8907 177.079 82.7667 177.079 82.0734 177.773C81.3801 178.466 81.3801 179.59 82.0734 180.283C82.7667 180.977 83.8907 180.977 84.5839 180.283Z" fill="#006BFF"/>
<path d="M97.9197 193.619C98.4276 193.111 98.4276 192.288 97.9197 191.78C97.4118 191.272 96.5882 191.272 96.0803 191.78C95.5723 192.288 95.5723 193.111 96.0803 193.619C96.5882 194.127 97.4118 194.127 97.9197 193.619Z" fill="#006BFF"/>
<path d="M16.2273 84.5839C16.9205 83.8907 16.9205 82.7667 16.2273 82.0734C15.534 81.3801 14.41 81.3801 13.7167 82.0734C13.0234 82.7667 13.0234 83.8907 13.7167 84.5839C14.41 85.2772 15.534 85.2772 16.2273 84.5839Z" fill="#006BFF"/>
<path d="M30.402 98.7586C31.3732 97.7874 31.3732 96.2126 30.402 95.2414C29.4307 94.2701 27.856 94.2701 26.8847 95.2414C25.9134 96.2126 25.9134 97.7874 26.8847 98.7586C27.856 99.7299 29.4307 99.7299 30.402 98.7586Z" fill="#006BFF"/>
<path d="M44.5766 112.933C45.8259 111.684 45.8259 109.659 44.5766 108.409C43.3274 107.16 41.3019 107.16 40.0527 108.409C38.8034 109.659 38.8034 111.684 40.0527 112.933C41.3019 114.183 43.3274 114.183 44.5766 112.933Z" fill="#006BFF"/>
<path d="M58.7513 127.108C60.2786 125.581 60.2786 123.105 58.7513 121.577C57.2241 120.05 54.7479 120.05 53.2207 121.577C51.6934 123.105 51.6934 125.581 53.2207 127.108C54.7479 128.635 57.2241 128.635 58.7513 127.108Z" fill="#006BFF"/>
<path d="M72.4227 140.779C73.9499 139.252 73.9499 136.776 72.4227 135.249C70.8954 133.721 68.4193 133.721 66.892 135.249C65.3647 136.776 65.3647 139.252 66.892 140.779C68.4193 142.307 70.8954 142.307 72.4227 140.779Z" fill="#006BFF"/>
<path d="M85.5906 153.947C86.8399 152.698 86.8399 150.673 85.5906 149.423C84.3414 148.174 82.3159 148.174 81.0667 149.423C79.8174 150.673 79.8174 152.698 81.0667 153.947C82.3159 155.197 84.3414 155.197 85.5906 153.947Z" fill="#006BFF"/>
<path d="M98.7586 167.115C99.7299 166.144 99.7299 164.569 98.7586 163.598C97.7874 162.627 96.2126 162.627 95.2414 163.598C94.2701 164.569 94.2701 166.144 95.2414 167.115C96.2126 168.087 97.7874 168.087 98.7586 167.115Z" fill="#006BFF"/>
<path d="M111.927 180.283C112.62 179.59 112.62 178.466 111.927 177.773C111.233 177.079 110.109 177.079 109.416 177.773C108.723 178.466 108.723 179.59 109.416 180.283C110.109 180.977 111.233 180.977 111.927 180.283Z" fill="#006BFF"/>
<path d="M15.8917 56.9057C16.3996 56.3978 16.3996 55.5742 15.8917 55.0663C15.3838 54.5583 14.5602 54.5583 14.0523 55.0663C13.5443 55.5742 13.5443 56.3978 14.0523 56.9057C14.5602 57.4137 15.3838 57.4136 15.8917 56.9057Z" fill="#006BFF"/>
<path d="M30.2342 71.2482C31.1128 70.3696 31.1128 68.9451 30.2342 68.0665C29.3556 67.1879 27.9311 67.1879 27.0525 68.0665C26.1739 68.9451 26.1739 70.3696 27.0525 71.2482C27.9311 72.1268 29.3556 72.1268 30.2342 71.2482Z" fill="#006BFF"/>
<path d="M44.5766 85.5906C45.8259 84.3414 45.8259 82.3159 44.5766 81.0667C43.3274 79.8174 41.3019 79.8174 40.0527 81.0667C38.8034 82.3159 38.8034 84.3414 40.0527 85.5906C41.3019 86.8399 43.3274 86.8399 44.5766 85.5906Z" fill="#006BFF"/>
<path d="M58.9191 99.9331C60.539 98.3132 60.539 95.6868 58.9191 94.0669C57.2992 92.447 54.6728 92.447 53.0529 94.0669C51.433 95.6868 51.433 98.3132 53.0529 99.9331C54.6728 101.553 57.2992 101.553 58.9191 99.9331Z" fill="#006BFF"/>
<path d="M73.2616 114.276C75.2522 112.285 75.2522 109.058 73.2616 107.067C71.271 105.076 68.0436 105.076 66.0531 107.067C64.0625 109.058 64.0625 112.285 66.0531 114.276C68.0436 116.266 71.271 116.266 73.2616 114.276Z" fill="#006BFF"/>
<path d="M86.9329 127.947C88.9235 125.956 88.9235 122.729 86.9329 120.738C84.9423 118.748 81.715 118.748 79.7244 120.738C77.7338 122.729 77.7338 125.956 79.7244 127.947C81.715 129.938 84.9423 129.938 86.9329 127.947Z" fill="#006BFF"/>
<path d="M99.9331 140.947C101.553 139.327 101.553 136.701 99.9331 135.081C98.3132 133.461 95.6868 133.461 94.0669 135.081C92.447 136.701 92.447 139.327 94.0669 140.947C95.6868 142.567 98.3132 142.567 99.9331 140.947Z" fill="#006BFF"/>
<path d="M112.933 153.947C114.183 152.698 114.183 150.673 112.933 149.423C111.684 148.174 109.659 148.174 108.409 149.423C107.16 150.673 107.16 152.698 108.409 153.947C109.659 155.197 111.684 155.197 112.933 153.947Z" fill="#006BFF"/>
<path d="M125.934 166.948C126.812 166.069 126.812 164.644 125.934 163.766C125.055 162.887 123.63 162.887 122.752 163.766C121.873 164.644 121.873 166.069 122.752 166.948C123.63 167.826 125.055 167.826 125.934 166.948Z" fill="#006BFF"/>
<path d="M138.934 179.948C139.442 179.44 139.442 178.616 138.934 178.108C138.426 177.6 137.602 177.6 137.094 178.108C136.586 178.616 136.586 179.44 137.094 179.948C137.602 180.456 138.426 180.456 138.934 179.948Z" fill="#006BFF"/>
<path d="M29.7308 43.4022C30.3314 42.8016 30.3314 41.8278 29.7308 41.2272C29.1302 40.6266 28.1564 40.6266 27.5558 41.2272C26.9552 41.8278 26.9552 42.8016 27.5558 43.4022C28.1564 44.0028 29.1302 44.0028 29.7308 43.4022Z" fill="#006BFF"/>
<path d="M44.2411 57.9124C45.305 56.8485 45.305 55.1235 44.2411 54.0596C43.1771 52.9957 41.4522 52.9957 40.3882 54.0596C39.3243 55.1235 39.3243 56.8485 40.3882 57.9124C41.4522 58.9763 43.1771 58.9763 44.2411 57.9124Z" fill="#006BFF"/>
<path d="M58.7513 72.4227C60.2786 70.8954 60.2786 68.4193 58.7513 66.892C57.2241 65.3647 54.7479 65.3647 53.2207 66.892C51.6934 68.4192 51.6934 70.8954 53.2207 72.4227C54.7479 73.9499 57.2241 73.9499 58.7513 72.4227Z" fill="#006BFF"/>
<path d="M73.2616 86.9329C75.2522 84.9423 75.2522 81.715 73.2616 79.7244C71.271 77.7338 68.0436 77.7338 66.0531 79.7244C64.0625 81.715 64.0625 84.9423 66.0531 86.9329C68.0436 88.9235 71.271 88.9235 73.2616 86.9329Z" fill="#006BFF"/>
<path d="M87.7719 101.443C90.2258 98.9893 90.2258 95.0107 87.7719 92.5568C85.3179 90.1029 81.3394 90.1029 78.8855 92.5568C76.4316 95.0107 76.4316 98.9893 78.8855 101.443C81.3394 103.897 85.3179 103.897 87.7719 101.443Z" fill="#006BFF"/>
<path d="M101.443 115.115C103.897 112.661 103.897 108.682 101.443 106.228C98.9893 103.774 95.0107 103.774 92.5568 106.228C90.1029 108.682 90.1029 112.661 92.5568 115.115C95.0107 117.568 98.9893 117.568 101.443 115.115Z" fill="#006BFF"/>
<path d="M114.276 127.947C116.266 125.956 116.266 122.729 114.276 120.738C112.285 118.748 109.058 118.748 107.067 120.738C105.076 122.729 105.076 125.956 107.067 127.947C109.058 129.938 112.285 129.938 114.276 127.947Z" fill="#006BFF"/>
<path d="M127.108 140.779C128.635 139.252 128.635 136.776 127.108 135.249C125.581 133.721 123.105 133.721 121.577 135.249C120.05 136.776 120.05 139.252 121.577 140.779C123.105 142.307 125.581 142.307 127.108 140.779Z" fill="#006BFF"/>
<path d="M139.94 153.612C141.004 152.548 141.004 150.823 139.94 149.759C138.876 148.695 137.152 148.695 136.088 149.759C135.024 150.823 135.024 152.548 136.088 153.612C137.152 154.676 138.876 154.676 139.94 153.612Z" fill="#006BFF"/>
<path d="M152.773 166.444C153.373 165.844 153.373 164.87 152.773 164.269C152.172 163.669 151.198 163.669 150.598 164.269C149.997 164.87 149.997 165.844 150.598 166.444C151.198 167.045 152.172 167.045 152.773 166.444Z" fill="#006BFF"/>
<path d="M43.4022 29.7308C44.0028 29.1302 44.0028 28.1564 43.4022 27.5558C42.8016 26.9552 41.8278 26.9552 41.2272 27.5558C40.6266 28.1564 40.6266 29.1302 41.2272 29.7308C41.8278 30.3314 42.8016 30.3314 43.4022 29.7308Z" fill="#006BFF"/>
<path d="M57.9124 44.2411C58.9763 43.1771 58.9763 41.4522 57.9124 40.3882C56.8485 39.3243 55.1235 39.3243 54.0596 40.3882C52.9957 41.4522 52.9957 43.1771 54.0596 44.2411C55.1235 45.305 56.8485 45.305 57.9124 44.2411Z" fill="#006BFF"/>
<path d="M72.4227 58.7513C73.9499 57.2241 73.9499 54.7479 72.4227 53.2207C70.8954 51.6934 68.4193 51.6934 66.892 53.2207C65.3647 54.7479 65.3647 57.2241 66.892 58.7513C68.4193 60.2786 70.8954 60.2786 72.4227 58.7513Z" fill="#006BFF"/>
<path d="M86.9329 73.2616C88.9235 71.271 88.9235 68.0436 86.9329 66.0531C84.9423 64.0625 81.715 64.0625 79.7244 66.0531C77.7338 68.0436 77.7338 71.271 79.7244 73.2616C81.715 75.2522 84.9423 75.2522 86.9329 73.2616Z" fill="#006BFF"/>
<path d="M101.443 87.7719C103.897 85.3179 103.897 81.3394 101.443 78.8855C98.9893 76.4316 95.0107 76.4316 92.5568 78.8855C90.1029 81.3394 90.1029 85.3179 92.5568 87.7719C95.0107 90.2258 98.9893 90.2258 101.443 87.7719Z" fill="#006BFF"/>
<path d="M115.115 101.443C117.568 98.9893 117.568 95.0107 115.115 92.5568C112.661 90.1029 108.682 90.1029 106.228 92.5568C103.774 95.0107 103.774 98.9893 106.228 101.443C108.682 103.897 112.661 103.897 115.115 101.443Z" fill="#006BFF"/>
<path d="M127.947 114.276C129.938 112.285 129.938 109.058 127.947 107.067C125.956 105.076 122.729 105.076 120.738 107.067C118.748 109.058 118.748 112.285 120.738 114.276C122.729 116.266 125.956 116.266 127.947 114.276Z" fill="#006BFF"/>
<path d="M140.779 127.108C142.307 125.581 142.307 123.105 140.779 121.577C139.252 120.05 136.776 120.05 135.249 121.577C133.721 123.105 133.721 125.581 135.249 127.108C136.776 128.635 139.252 128.635 140.779 127.108Z" fill="#006BFF"/>
<path d="M153.612 139.94C154.676 138.876 154.676 137.152 153.612 136.088C152.548 135.024 150.823 135.024 149.759 136.088C148.695 137.152 148.695 138.876 149.759 139.94C150.823 141.004 152.548 141.004 153.612 139.94Z" fill="#006BFF"/>
<path d="M166.444 152.773C167.045 152.172 167.045 151.198 166.444 150.598C165.844 149.997 164.87 149.997 164.269 150.598C163.669 151.198 163.669 152.172 164.269 152.773C164.87 153.373 165.844 153.373 166.444 152.773Z" fill="#006BFF"/>
<path d="M56.9057 15.8917C57.4136 15.3838 57.4136 14.5602 56.9057 14.0523C56.3978 13.5443 55.5742 13.5443 55.0663 14.0523C54.5583 14.5602 54.5584 15.3838 55.0663 15.8917C55.5742 16.3996 56.3978 16.3996 56.9057 15.8917Z" fill="#006BFF"/>
<path d="M71.2482 30.2342C72.1268 29.3556 72.1268 27.9311 71.2482 27.0525C70.3696 26.1739 68.9451 26.1739 68.0665 27.0525C67.1879 27.9311 67.1879 29.3556 68.0665 30.2342C68.9451 31.1128 70.3696 31.1128 71.2482 30.2342Z" fill="#006BFF"/>
<path d="M85.5906 44.5766C86.8399 43.3274 86.8399 41.3019 85.5906 40.0527C84.3414 38.8034 82.3159 38.8034 81.0667 40.0527C79.8174 41.3019 79.8174 43.3274 81.0667 44.5766C82.3159 45.8259 84.3414 45.8259 85.5906 44.5766Z" fill="#006BFF"/>
<path d="M99.9331 58.9191C101.553 57.2992 101.553 54.6728 99.9331 53.0529C98.3132 51.433 95.6868 51.433 94.0669 53.0529C92.447 54.6728 92.447 57.2992 94.0669 58.9191C95.6868 60.539 98.3132 60.539 99.9331 58.9191Z" fill="#006BFF"/>
<path d="M114.276 73.2616C116.266 71.271 116.266 68.0436 114.276 66.0531C112.285 64.0625 109.058 64.0625 107.067 66.0531C105.076 68.0436 105.076 71.271 107.067 73.2616C109.058 75.2522 112.285 75.2522 114.276 73.2616Z" fill="#006BFF"/>
<path d="M127.947 86.9329C129.938 84.9423 129.938 81.715 127.947 79.7244C125.956 77.7338 122.729 77.7338 120.738 79.7244C118.748 81.715 118.748 84.9423 120.738 86.9329C122.729 88.9235 125.956 88.9235 127.947 86.9329Z" fill="#006BFF"/>
<path d="M140.947 99.9331C142.567 98.3132 142.567 95.6868 140.947 94.0669C139.327 92.447 136.701 92.447 135.081 94.0669C133.461 95.6868 133.461 98.3132 135.081 99.9331C136.701 101.553 139.327 101.553 140.947 99.9331Z" fill="#006BFF"/>
<path d="M153.947 112.933C155.197 111.684 155.197 109.659 153.947 108.409C152.698 107.16 150.673 107.16 149.423 108.409C148.174 109.659 148.174 111.684 149.423 112.933C150.673 114.183 152.698 114.183 153.947 112.933Z" fill="#006BFF"/>
<path d="M166.948 125.934C167.826 125.055 167.826 123.63 166.948 122.752C166.069 121.873 164.644 121.873 163.766 122.752C162.887 123.63 162.887 125.055 163.766 125.934C164.644 126.812 166.069 126.812 166.948 125.934Z" fill="#006BFF"/>
<path d="M179.948 138.934C180.456 138.426 180.456 137.602 179.948 137.094C179.44 136.586 178.616 136.586 178.108 137.094C177.6 137.602 177.6 138.426 178.108 138.934C178.616 139.442 179.44 139.442 179.948 138.934Z" fill="#006BFF"/>
<path d="M84.5839 16.2273C85.2772 15.534 85.2772 14.41 84.5839 13.7167C83.8907 13.0234 82.7667 13.0234 82.0734 13.7167C81.3801 14.41 81.3801 15.534 82.0734 16.2273C82.7667 16.9205 83.8907 16.9205 84.5839 16.2273Z" fill="#006BFF"/>
<path d="M98.7586 30.402C99.7299 29.4307 99.7299 27.856 98.7586 26.8847C97.7874 25.9134 96.2126 25.9134 95.2414 26.8847C94.2701 27.856 94.2701 29.4307 95.2414 30.402C96.2126 31.3732 97.7874 31.3732 98.7586 30.402Z" fill="#006BFF"/>
<path d="M112.933 44.5766C114.183 43.3274 114.183 41.3019 112.933 40.0527C111.684 38.8034 109.659 38.8034 108.409 40.0527C107.16 41.3019 107.16 43.3274 108.409 44.5766C109.659 45.8259 111.684 45.8259 112.933 44.5766Z" fill="#006BFF"/>
<path d="M127.108 58.7513C128.635 57.2241 128.635 54.7479 127.108 53.2207C125.581 51.6934 123.105 51.6934 121.577 53.2207C120.05 54.7479 120.05 57.2241 121.577 58.7513C123.105 60.2786 125.581 60.2786 127.108 58.7513Z" fill="#006BFF"/>
<path d="M140.779 72.4227C142.307 70.8954 142.307 68.4193 140.779 66.892C139.252 65.3647 136.776 65.3647 135.249 66.892C133.721 68.4193 133.721 70.8954 135.249 72.4227C136.776 73.9499 139.252 73.9499 140.779 72.4227Z" fill="#006BFF"/>
<path d="M153.947 85.5906C155.197 84.3414 155.197 82.3159 153.947 81.0667C152.698 79.8174 150.673 79.8174 149.423 81.0667C148.174 82.3159 148.174 84.3414 149.423 85.5906C150.673 86.8399 152.698 86.8399 153.947 85.5906Z" fill="#006BFF"/>
<path d="M167.115 98.7586C168.087 97.7874 168.087 96.2126 167.115 95.2414C166.144 94.2701 164.569 94.2701 163.598 95.2414C162.627 96.2126 162.627 97.7874 163.598 98.7586C164.569 99.7299 166.144 99.7299 167.115 98.7586Z" fill="#006BFF"/>
<path d="M180.283 111.927C180.977 111.233 180.977 110.109 180.283 109.416C179.59 108.723 178.466 108.723 177.773 109.416C177.079 110.109 177.079 111.233 177.773 111.927C178.466 112.62 179.59 112.62 180.283 111.927Z" fill="#006BFF"/>
<path d="M97.9197 2.22037C98.4276 1.71243 98.4276 0.888897 97.9197 0.380957C97.4118 -0.126984 96.5882 -0.126986 96.0803 0.380954C95.5723 0.888895 95.5723 1.71243 96.0803 2.22037C96.5882 2.72831 97.4118 2.72831 97.9197 2.22037Z" fill="#006BFF"/>
<path d="M111.927 16.2273C112.62 15.534 112.62 14.41 111.927 13.7167C111.233 13.0234 110.109 13.0234 109.416 13.7167C108.723 14.41 108.723 15.534 109.416 16.2273C110.109 16.9205 111.233 16.9205 111.927 16.2273Z" fill="#006BFF"/>
<path d="M125.934 30.2342C126.812 29.3556 126.812 27.9311 125.934 27.0525C125.055 26.1739 123.63 26.1739 122.752 27.0525C121.873 27.9311 121.873 29.3556 122.752 30.2342C123.63 31.1128 125.055 31.1128 125.934 30.2342Z" fill="#006BFF"/>
<path d="M139.94 44.2411C141.004 43.1771 141.004 41.4522 139.94 40.3882C138.876 39.3243 137.152 39.3243 136.088 40.3882C135.024 41.4522 135.024 43.1772 136.088 44.2411C137.152 45.305 138.876 45.305 139.94 44.2411Z" fill="#006BFF"/>
<path d="M153.612 57.9124C154.676 56.8485 154.676 55.1235 153.612 54.0596C152.548 52.9956 150.823 52.9957 149.759 54.0596C148.695 55.1235 148.695 56.8485 149.759 57.9124C150.823 58.9763 152.548 58.9763 153.612 57.9124Z" fill="#006BFF"/>
<path d="M166.948 71.2482C167.826 70.3696 167.826 68.9451 166.948 68.0665C166.069 67.1879 164.644 67.1879 163.766 68.0665C162.887 68.9451 162.887 70.3696 163.766 71.2482C164.644 72.1268 166.069 72.1268 166.948 71.2482Z" fill="#006BFF"/>
<path d="M180.283 84.5839C180.977 83.8907 180.977 82.7667 180.283 82.0734C179.59 81.3801 178.466 81.3801 177.773 82.0734C177.079 82.7667 177.079 83.8907 177.773 84.5839C178.466 85.2772 179.59 85.2772 180.283 84.5839Z" fill="#006BFF"/>
<path d="M193.619 97.9197C194.127 97.4118 194.127 96.5882 193.619 96.0803C193.111 95.5723 192.288 95.5723 191.78 96.0803C191.272 96.5882 191.272 97.4118 191.78 97.9197C192.288 98.4276 193.111 98.4276 193.619 97.9197Z" fill="#006BFF"/>
<path d="M138.934 15.8917C139.442 15.3838 139.442 14.5602 138.934 14.0523C138.426 13.5443 137.602 13.5443 137.094 14.0523C136.586 14.5602 136.586 15.3838 137.094 15.8917C137.602 16.3996 138.426 16.3996 138.934 15.8917Z" fill="#006BFF"/>
<path d="M152.773 29.7308C153.373 29.1302 153.373 28.1564 152.773 27.5558C152.172 26.9552 151.198 26.9552 150.598 27.5558C149.997 28.1564 149.997 29.1302 150.598 29.7308C151.198 30.3314 152.172 30.3314 152.773 29.7308Z" fill="#006BFF"/>
<path d="M166.444 43.4022C167.045 42.8016 167.045 41.8278 166.444 41.2272C165.844 40.6266 164.87 40.6266 164.269 41.2272C163.669 41.8278 163.669 42.8016 164.269 43.4022C164.87 44.0028 165.844 44.0028 166.444 43.4022Z" fill="#006BFF"/>
<path d="M179.948 56.9057C180.456 56.3978 180.456 55.5742 179.948 55.0663C179.44 54.5584 178.616 54.5584 178.108 55.0663C177.6 55.5742 177.6 56.3978 178.108 56.9057C178.616 57.4136 179.44 57.4136 179.948 56.9057Z" fill="#006BFF"/>
</svg>
